<svg width="136" height="139" viewBox="0 0 136 139" fill="none" xmlns="http://www.w3.org/2000/svg">
<path d="M35.6707 88.4951C47.2335 73.0843 67.5192 68.764 67.5192 68.764C67.5192 68.764 69.0577 89.4294 57.4948 104.84C45.932 120.251 25.6464 124.571 25.6464 124.571C25.6464 124.571 24.1078 103.906 35.6707 88.4951Z" fill="#F47458"/>
<path d="M84.6722 102.281C82.7253 83.1035 67.5915 68.9446 67.5915 68.9446C67.5915 68.9446 55.6143 85.8785 57.5612 105.056C59.5082 124.233 74.642 138.392 74.642 138.392C74.642 138.392 86.6192 121.458 84.6722 102.281Z" fill="#201F30"/>
<path d="M76.7301 105.033C65.2893 89.5309 66.9768 68.8591 66.9768 68.8591C66.9768 68.8591 87.2135 73.3203 98.6543 88.8219C110.095 104.324 108.408 124.995 108.408 124.995C108.408 124.995 88.1709 120.534 76.7301 105.033Z" fill="#F47458"/>
<path d="M104.659 67.8851C86.5051 61.4044 67.2178 68.9876 67.2178 68.9876C67.2178 68.9876 77.3638 87.0782 95.5178 93.5589C113.672 100.04 132.959 92.4563 132.959 92.4563C132.959 92.4563 122.813 74.3658 104.659 67.8851Z" fill="#201F30"/>
<path d="M103.732 76.2391C84.8184 79.9106 66.8764 69.5059 66.8764 69.5059C66.8764 69.5059 79.5988 53.1485 98.5121 49.4769C117.425 45.8054 135.367 56.21 135.367 56.21C135.367 56.21 122.645 72.5675 103.732 76.2391Z" fill="#F47458"/>
<path d="M78.6103 33.7788C66.4669 48.7488 67.2121 69.4599 67.2121 69.4599C67.2121 69.4599 87.6458 65.8998 99.7893 50.9298C111.933 35.9598 111.187 15.2487 111.187 15.2487C111.187 15.2487 90.7538 18.8087 78.6103 33.7788Z" fill="#201F30"/>
<path d="M86.1818 37.4287C83.3618 56.4875 67.5876 69.9541 67.5876 69.9541C67.5876 69.9541 56.3856 52.5202 59.2056 33.4613C62.0256 14.4025 77.7998 0.935984 77.7998 0.935984C77.7998 0.935984 89.0018 18.3699 86.1818 37.4287Z" fill="#F47458"/>
<path d="M36.6114 47.6756C47.2154 63.7728 67.1847 69.3167 67.1847 69.3167C67.1847 69.3167 69.9614 48.7619 59.3573 32.6647C48.7533 16.5675 28.784 11.0236 28.784 11.0236C28.784 11.0236 26.0073 31.5784 36.6114 47.6756Z" fill="#201F30"/>
<path d="M42.3773 41.5599C59.6948 50.0036 67.7691 69.108 67.7691 69.108C67.7691 69.108 47.7663 74.5223 30.4489 66.0786C13.1314 57.6348 5.05705 38.5305 5.05705 38.5305C5.05705 38.5305 25.0598 33.1161 42.3773 41.5599Z" fill="#F47458"/>
<path d="M37.6286 94.3713C55.6633 87.566 65.4621 69.3042 65.4621 69.3042C65.4621 69.3042 46.0208 62.0762 27.986 68.8815C9.95126 75.6869 0.152488 93.9486 0.152488 93.9486C0.152488 93.9486 19.5938 101.177 37.6286 94.3713Z" fill="#201F30"/>
</svg>
